<?xml version="1.0" encoding="utf-8"?>
<!-- Generator: Adobe Illustrator 25.2.3, SVG Export Plug-In . SVG Version: 6.00 Build 0)  -->
<svg version="1.1" id="_4jAiU6FrBiXOwv3T5kW7P" xmlns="http://www.w3.org/2000/svg" xmlns:xlink="http://www.w3.org/1999/xlink"
	 x="0px" y="0px" viewBox="0 0 461.4 59.8" style="enable-background:new 0 0 461.4 59.8;" xml:space="preserve">
<style type="text/css">
	.st0{fill:#E5DC0E;}
	.st1{fill:#FFFFFF;}
</style>
<g transform="matrix(1.3843560218811035, 0, 0, 1.3843560218811035, -8.927486419677734, -85.70426177978516)">
	<path id="_Mi2FMqO9barjqwhklphLP" class="st0" d="M276.8,73.6C276.8,73.5,276.8,73.5,276.8,73.6c0-0.1,0-0.2,0-0.2
		c0-4.2,2.8-6.1,2.8-6.1h10.6c0-1.4-6.8-5.3-11.5-5.3c-3.8,0-6.5,6.1-10,6.2c-1.9,0-17,0-21.3,0V72h20.2c0,0,0.8,0,0.8,1.4v0.1v0.1
		c0,1.4-0.8,1.4-0.8,1.4h-20.2v3.9c4.3,0,19.4,0,21.3,0c3.4,0,6.2,6.2,10,6.2c4.7,0,11.5-3.9,11.5-5.3h-10.6
		C279.7,79.7,276.8,77.7,276.8,73.6z"/>
	<path id="_oEBSUCOHmFVHeTh0kZa9v" class="st1" d="M40.9,65.3h5.5l-5,28.1c-0.1,0.6-0.4,1-0.8,1.4c-0.4,0.4-0.9,0.7-1.4,0.8l0,0
		c-0.6,0.1-1.1,0-1.6-0.2s-0.9-0.6-1.2-1l0,0L26.4,78l-10,16.3c-0.2,0.4-0.6,0.7-1,0.9c-0.4,0.2-0.9,0.3-1.3,0.3l0,0
		c-0.7,0-1.2-0.2-1.7-0.6s-0.8-1-0.9-1.6l0,0l-5.1-28H12l3.6,19.8l8.6-13.7c0.2-0.4,0.6-0.7,1-0.9c0.4-0.2,0.9-0.3,1.3-0.3l0,0
		c0.5,0,0.9,0.1,1.3,0.3c0.4,0.2,0.7,0.5,1,0.9l0,0l8.5,13.7L40.9,65.3z M72.9,80.2v7.6c0,0.8-0.1,1.6-0.4,2.4
		c-0.3,0.9-0.7,1.7-1.3,2.4c-0.6,0.7-1.4,1.4-2.3,1.9c-1,0.5-2.1,0.8-3.5,0.8l0,0h-9.8c-0.8,0-1.6-0.1-2.4-0.4
		c-0.9-0.3-1.7-0.7-2.4-1.3c-0.7-0.6-1.4-1.4-1.9-2.3c-0.5-1-0.8-2.1-0.8-3.5l0,0c0-0.8,0.1-1.6,0.4-2.4c0.3-0.9,0.7-1.7,1.3-2.4
		c0.6-0.7,1.4-1.4,2.3-1.9c1-0.5,2.1-0.8,3.5-0.8l0,0h9.8v5.2h-9.8c-0.7,0-1.3,0.2-1.7,0.7s-0.6,1-0.6,1.7l0,0
		c0,0.7,0.2,1.3,0.7,1.7c0.5,0.4,1,0.6,1.7,0.6l0,0h9.8c0.7,0,1.3-0.2,1.7-0.7c0.4-0.4,0.6-1,0.6-1.7l0,0v-7.6
		c0-0.7-0.2-1.3-0.7-1.7c-0.4-0.4-1-0.6-1.7-0.6l0,0H53.5v-5.2h11.9c0.8,0,1.6,0.1,2.4,0.4c0.9,0.3,1.7,0.7,2.4,1.3
		c0.7,0.6,1.4,1.4,1.9,2.3C72.7,77.6,72.9,78.8,72.9,80.2L72.9,80.2z M98,72.7v5.4h-9.5v17.1H83V78.1h-7v-5.4h7v-7.4h5.5v7.4H98z
		 M123.4,89.8v5.4h-14.7c-0.8,0-1.6-0.1-2.5-0.4s-1.7-0.7-2.5-1.3c-0.8-0.6-1.4-1.4-1.9-2.4s-0.8-2.2-0.8-3.6l0,0v-7.4
		c0-0.5,0.1-1.1,0.2-1.6c0.1-0.6,0.3-1.1,0.6-1.7c0.3-0.6,0.6-1.1,1-1.6s0.9-1,1.4-1.4c0.6-0.4,1.2-0.7,2-0.9
		c0.7-0.2,1.6-0.4,2.5-0.4l0,0h14.7v5.4h-14.7c-0.7,0-1.3,0.2-1.6,0.5c-0.4,0.4-0.6,0.9-0.6,1.7l0,0v7.3c0,0.7,0.2,1.3,0.6,1.6
		c0.4,0.4,0.9,0.6,1.6,0.6l0,0h14.7V89.8z M153,80.3v15h-5.4v-15c0-0.7-0.2-1.2-0.5-1.6c-0.4-0.4-0.9-0.6-1.6-0.6l0,0h-9.8v-5.4h9.8
		c0.5,0,1.1,0.1,1.6,0.2c0.6,0.1,1.1,0.3,1.7,0.6c0.6,0.2,1.1,0.6,1.6,1s1,0.9,1.4,1.4c0.4,0.6,0.7,1.2,0.9,2
		C152.8,78.5,153,79.3,153,80.3L153,80.3z M133.4,63.1v32.1H128V63.1H133.4z M182.7,63.1v24.5c0,0.9-0.1,1.8-0.4,2.5
		c-0.2,0.7-0.6,1.4-0.9,2c-0.4,0.6-0.8,1-1.4,1.4c-0.5,0.4-1.1,0.7-1.6,1c-0.6,0.3-1.1,0.4-1.7,0.6c-0.6,0.1-1.1,0.2-1.6,0.2l0,0
		h-9.8c-0.9,0-1.8-0.1-2.5-0.4c-0.7-0.2-1.4-0.6-2-0.9c-0.6-0.4-1-0.9-1.4-1.4s-0.7-1.1-1-1.6c-0.3-0.6-0.4-1.1-0.6-1.7
		c-0.1-0.6-0.2-1.1-0.2-1.6l0,0v-7.4c0-1.4,0.3-2.6,0.8-3.5c0.5-1,1.1-1.8,1.9-2.4c0.8-0.6,1.6-1,2.5-1.3s1.7-0.4,2.5-0.4l0,0h9.8
		v5.4h-9.8c-0.7,0-1.3,0.2-1.7,0.6s-0.6,0.9-0.6,1.6l0,0v7.3c0,0.7,0.2,1.3,0.6,1.7c0.4,0.4,0.9,0.6,1.6,0.6l0,0h9.8
		c0.7,0,1.3-0.2,1.7-0.6s0.5-0.9,0.5-1.6l0,0V63.1H182.7z M212.4,80.3v7.4c0,0.9-0.1,1.8-0.4,2.5c-0.2,0.7-0.6,1.4-0.9,2
		c-0.4,0.6-0.8,1-1.4,1.4c-0.5,0.4-1.1,0.7-1.6,1c-0.6,0.3-1.1,0.4-1.7,0.6c-0.6,0.1-1.1,0.2-1.6,0.2l0,0H195
		c-0.8,0-1.6-0.1-2.5-0.4s-1.7-0.7-2.5-1.3c-0.8-0.6-1.4-1.4-1.9-2.4s-0.8-2.2-0.8-3.6l0,0v-7.4c0-1.4,0.3-2.6,0.8-3.5
		c0.5-1,1.1-1.8,1.9-2.4c0.8-0.6,1.6-1,2.5-1.3s1.7-0.4,2.5-0.4l0,0h9.8c1.4,0,2.6,0.2,3.6,0.7s1.8,1.1,2.4,1.9
		c0.6,0.8,1,1.6,1.3,2.5C212.3,78.7,212.4,79.5,212.4,80.3L212.4,80.3z M207,87.6v-7.3c0-0.8-0.2-1.3-0.6-1.7
		c-0.4-0.4-0.9-0.5-1.6-0.5l0,0H195c-0.7,0-1.3,0.2-1.6,0.6c-0.4,0.4-0.6,0.9-0.6,1.6l0,0v7.4c0,0.7,0.2,1.3,0.6,1.6
		c0.4,0.4,0.9,0.6,1.6,0.6l0,0h9.8c0.7,0,1.3-0.2,1.6-0.6C206.8,88.9,207,88.3,207,87.6L207,87.6z M241.6,80.3v17.1
		c0,0.9-0.1,1.8-0.4,2.5c-0.2,0.7-0.6,1.4-0.9,2c-0.4,0.6-0.8,1-1.4,1.4c-0.5,0.4-1.1,0.7-1.6,1c-0.6,0.3-1.1,0.4-1.7,0.6
		c-0.6,0.1-1.1,0.2-1.6,0.2l0,0h-9.8v-5.4h9.8c0.7,0,1.3-0.2,1.6-0.6c0.4-0.4,0.5-0.9,0.5-1.6l0,0V80.3c0-0.7-0.2-1.2-0.5-1.6
		c-0.4-0.4-0.9-0.6-1.6-0.6l0,0h-9.8c-0.7,0-1.2,0.2-1.6,0.6c-0.4,0.4-0.6,0.9-0.6,1.6l0,0v7.4c0,0.7,0.2,1.3,0.6,1.6
		c0.4,0.4,0.9,0.6,1.6,0.6l0,0h9.8v5.4h-9.8c-0.5,0-1.1-0.1-1.6-0.2c-0.6-0.1-1.1-0.3-1.7-0.6c-0.6-0.3-1.1-0.6-1.6-1
		s-1-0.9-1.4-1.4c-0.4-0.6-0.7-1.2-0.9-2c-0.2-0.7-0.4-1.6-0.4-2.5l0,0v-7.4c0-0.5,0.1-1.1,0.2-1.6c0.1-0.6,0.3-1.1,0.6-1.7
		s0.6-1.1,1-1.6s0.9-1,1.4-1.4c0.6-0.4,1.2-0.7,2-0.9c0.7-0.2,1.6-0.4,2.5-0.4l0,0h9.8c0.5,0,1.1,0.1,1.6,0.2
		c0.6,0.1,1.1,0.3,1.7,0.6c0.6,0.2,1.1,0.6,1.6,1s1,0.9,1.4,1.4c0.4,0.6,0.7,1.2,0.9,2C241.5,78.5,241.6,79.3,241.6,80.3L241.6,80.3
		z"/>
	<g transform="matrix(1.1105523109436035, 0, 0, 1, 256.0030822753906, 196.07965087890625)">
		<path class="st1" d="M66.1-124.3c0.4,0.1,0.9,0,1.2-0.3c0.3-0.3,0.4-0.8,0.3-1.2l-1.3-4.5c-0.1-0.4-0.4-0.7-0.9-0.8
			c-0.4-0.1-0.9,0-1.2,0.3l-3.3,3.3c-0.3,0.3-0.4,0.8-0.3,1.2c0.1,0.4,0.4,0.7,0.9,0.8l0.6,0.2l-5.5,21.5L48-125.6
			c-0.2-0.6-0.9-1.1-1.6-1c-0.7,0-1.3,0.5-1.5,1.2l-6,21.9h-1.5c-0.2,0-0.3,0.1-0.4,0.2l-4.3-10c-0.2-0.5-0.7-0.9-1.2-0.9
			c0,0-0.1,0-0.2,0c-0.6,0-1.2,0.3-1.5,0.8l-5.3,9.9h-1.7c-0.3,0-0.5,0.2-0.5,0.5s0.2,0.5,0.5,0.5H24l-1.8,3.3l-2.7-4.6
			c-0.2-0.4-0.6-0.7-1-0.8c-0.4-0.1-0.9,0-1.3,0.2l-1.1,0.8h-0.5c-0.3,0-0.5,0.2-0.5,0.5c0,0.1,0,0.1,0,0.2L2.1-94
			c-0.7,0.5-0.9,1.5-0.4,2.2c0.2,0.4,0.6,0.6,1.1,0.7C3.3-91,3.7-91,4-91.3l13.7-9.4l3.2,5.6c0.2,0.4,0.7,0.7,1.1,0.8
			c0.1,0,0.2,0,0.3,0c0.6,0,1.1-0.3,1.4-0.9l7.4-13.8L37-95.3c0.2,0.5,0.7,0.9,1.2,0.9c0.1,0,0.3,0,0.4,0c0.7,0,1.3-0.5,1.4-1.2
			l6.7-24.5l6.5,16.4h-1.3c-0.3,0-0.5,0.2-0.5,0.5s0.2,0.5,0.5,0.5h1.7l1.8,4.6c0.2,0.5,0.7,0.9,1.2,1c0.1,0,0.2,0,0.4,0
			c0.7,0,1.3-0.5,1.5-1.2l1.1-4.4h1.7c0.3,0,0.5-0.2,0.5-0.5s-0.2-0.5-0.5-0.5H60l5.4-20.9L66.1-124.3z M38.2-100.8l-0.8-1.8
			c0,0,0,0,0.1,0h1.2L38.2-100.8z"/>
		<path class="st1" d="M-4.1-103.6h-1c-0.3,0-0.5,0.2-0.5,0.5s0.2,0.5,0.5,0.5h1c0.3,0,0.5-0.2,0.5-0.5S-3.8-103.6-4.1-103.6z"/>
		<path class="st1" d="M8.4-102.6h2.1c0.3,0,0.5-0.2,0.5-0.5s-0.2-0.5-0.5-0.5H8.4c-0.3,0-0.5,0.2-0.5,0.5S8.1-102.6,8.4-102.6z"/>
		<path class="st1" d="M32.3-103.6h-2.1c-0.3,0-0.5,0.2-0.5,0.5s0.2,0.5,0.5,0.5h2.1c0.3,0,0.5-0.2,0.5-0.5S32.6-103.6,32.3-103.6z"
			/>
		<path class="st1" d="M3.7-103.1c0-0.3-0.2-0.5-0.5-0.5H1.1c-0.3,0-0.5,0.2-0.5,0.5s0.2,0.5,0.5,0.5h2.1
			C3.4-102.6,3.7-102.8,3.7-103.1z"/>
		<path class="st1" d="M46.9-103.6h-2.1c-0.3,0-0.5,0.2-0.5,0.5s0.2,0.5,0.5,0.5h2.1c0.3,0,0.5-0.2,0.5-0.5S47.1-103.6,46.9-103.6z"
			/>
		<path class="st1" d="M68.7-103.6h-2.1c-0.3,0-0.5,0.2-0.5,0.5s0.2,0.5,0.5,0.5h2.1c0.3,0,0.5-0.2,0.5-0.5S69-103.6,68.7-103.6z"/>
		<path class="st1" d="M74.9-103.6h-1c-0.3,0-0.5,0.2-0.5,0.5s0.2,0.5,0.5,0.5h1c0.3,0,0.5-0.2,0.5-0.5S75.2-103.6,74.9-103.6z"/>
	</g>
</g>
</svg>
