<?xml version="1.0" encoding="utf-8"?>
<!-- Generator: Adobe Illustrator 25.2.3, SVG Export Plug-In . SVG Version: 6.00 Build 0)  -->
<svg version="1.1" id="Слой_1" xmlns="http://www.w3.org/2000/svg" xmlns:xlink="http://www.w3.org/1999/xlink" x="0px" y="0px"
	 viewBox="0 0 34.2 30.4" style="enable-background:new 0 0 34.2 30.4;" xml:space="preserve">
<style type="text/css">
	.st0{fill:#125386;}
	.st1{fill:#125385;}
</style>
<path class="st0" d="M6.9,28.9l-1.4,0.5c0.2,0.6,0.6,1,1.2,1c0.6,0.1,1.1-0.3,1.4-0.8L6.9,28.9z M14,15.1l1.2-0.6
	c0-0.1-0.1-0.1-0.1-0.2c-0.2-0.5-0.7-0.8-1.2-0.8c-0.5,0-1.1,0.3-1.3,0.8L14,15.1z M20,28.9l-1.4,0.7c0.2,0.5,0.7,0.8,1.3,0.8
	c0.6,0,1.1-0.4,1.3-1L20,28.9z M0,9.9l5.5,19.5l2.7-0.8L2.7,9.1L0,9.9z M8.1,29.6l7-14l-2.5-1.3l-7,14L8.1,29.6z M12.6,15.6l6,14
	l2.6-1.1l-6-14L12.6,15.6z M21.2,29.4l9-27.5L27.5,1l-9,27.5L21.2,29.4z"/>
<path class="st1" d="M28.8,1l0.9-0.5c-0.3-0.5-0.9-0.6-1.3-0.4L28.8,1z M20.8,6.4l8.5-4.5l-0.9-1.8l-8.5,4.5L20.8,6.4z M28,1.5
	L32.5,9l1.7-1l-4.5-7.5L28,1.5z"/>
<path class="st0" d="M15.2,14.5"/>
</svg>
